<svg xmlns="http://www.w3.org/2000/svg" version="1.1" xmlns:xlink="http://www.w3.org/1999/xlink" xmlns:svgjs="http://svgjs.dev/svgjs" width="1500" height="1500" viewBox="0 0 1500 1500"><g transform="matrix(1,0,0,1,0,0)"><svg viewBox="0 0 280 280" data-background-color="#ffffff" preserveAspectRatio="xMidYMid meet" height="1500" width="1500" xmlns="http://www.w3.org/2000/svg" xmlns:xlink="http://www.w3.org/1999/xlink"><g id="tight-bounds" transform="matrix(1,0,0,1,0,0)"><svg viewBox="0 0 280 280" height="280" width="280"><g><svg viewBox="0 0 280 280" height="280" width="280"><g><svg viewBox="0 0 280 280" height="280" width="280"><g id="textblocktransform"><svg viewBox="0 0 280 280" height="280" width="280" id="textblock"><g><svg viewBox="0 0 280 280" height="280" width="280"><g transform="matrix(1,0,0,1,57.50420886156945,57.50420886156945)"><svg viewBox="0 0 164.9915822768611 164.9915822768611" height="164.9915822768611" width="164.9915822768611"><g id="icon-0"><circle r="82" cx="82.49579113843055" cy="82.49579113843055" fill="#77d4fc" data-fill-palette-color="accent"></circle><svg xmlns="http://www.w3.org/2000/svg" xmlns:xlink="http://www.w3.org/1999/xlink" version="1.1" x="24.748737341529164" y="24.74873734152917" viewBox="0.6896103727003096 23.598999999999997 98.62138962729968 52.801999999999985" enable-background="new 0 0 100 100" xml:space="preserve" height="115.49410759380275" width="115.49410759380275" class="icon-xg-0" data-fill-palette-color="quaternary" id="xg-0"><g fill="#0080ff" data-fill-palette-color="quaternary"><path d="M97.066 49.294H84.667c-0.919 0-1.745 0.56-2.085 1.412l-1.541 3.857-8.542-21.378c-0.34-0.853-1.166-1.412-2.084-1.412-0.919 0-1.744 0.559-2.085 1.412l-6.436 16.109H53.06c2.014-5.625 2.044-11.745-0.042-16.634-1.81-4.24-4.981-7.124-9.169-8.34-1.649-0.478-3.265-0.721-4.804-0.721-5.719 0-9.354 3.237-11.41 5.988-2.057-2.751-5.691-5.988-11.411-5.988-1.539 0-3.155 0.243-4.804 0.722-4.188 1.215-7.358 4.1-9.168 8.339-2.501 5.861-1.971 13.493 1.386 19.919 5.525 10.572 21.96 22.861 22.657 23.38 0.398 0.295 0.868 0.442 1.339 0.442 0.471 0 0.941-0.147 1.339-0.442 0.671-0.499 15.909-11.895 21.982-22.175h12.46c0.918 0 1.744-0.56 2.085-1.412l4.915-12.303 8.542 21.379c0.341 0.853 1.166 1.412 2.085 1.412 0.918 0 1.743-0.56 2.085-1.412l3.061-7.664h10.879c1.239 0 2.244-1.005 2.244-2.245S98.306 49.294 97.066 49.294zM27.634 71.325C23.635 68.192 11.806 58.516 7.617 50.5 4.91 45.316 4.425 39.006 6.381 34.422c0.881-2.064 2.688-4.744 6.291-5.791 1.242-0.36 2.437-0.543 3.552-0.543 6.129 0 8.861 5.655 9.347 6.789 0.354 0.825 1.166 1.361 2.064 1.361s1.71-0.536 2.064-1.361c0.485-1.134 3.217-6.789 9.346-6.789 1.115 0 2.31 0.183 3.551 0.543 3.604 1.047 5.411 3.727 6.291 5.791 1.958 4.583 1.472 10.894-1.235 16.077C43.462 58.516 31.633 68.192 27.634 71.325z" fill="#0080ff" data-fill-palette-color="quaternary"></path></g></svg></g></svg></g><g id="text-0"><path d="M6.832 98.431l26.191 9.215-1.198 3.405-26.191-9.215zM12.397 82.613l26.191 9.216-1.198 3.404-26.191-9.215zM20.443 104.86l-2.872-1.011 5.358-15.228 2.872 1.01z" fill="#010c80" data-fill-palette-color="primary"></path><path d="M51.132 73.651v0c-1.886 2.618-3.949 4.13-6.189 4.537-2.231 0.405-4.54-0.252-6.927-1.972v0l-3.065-2.208c-2.424-1.747-3.847-3.708-4.267-5.885-0.42-2.177 0.224-4.45 1.932-6.821v0c1.152-1.598 2.409-2.721 3.771-3.369 1.364-0.638 2.789-0.834 4.274-0.588 1.479 0.243 2.978 0.911 4.495 2.004v0l0.636 0.458c0.375 0.27 0.739 0.557 1.091 0.86 0.356 0.297 0.699 0.601 1.03 0.913v0l-1.89 2.622c-0.548-0.427-1.072-0.825-1.572-1.193-0.5-0.369-0.962-0.706-1.386-1.011v0c-1.046-0.754-2.051-1.225-3.015-1.414-0.968-0.184-1.881-0.08-2.741 0.311-0.856 0.385-1.645 1.08-2.368 2.082v0c-1.067 1.48-1.437 2.9-1.112 4.258 0.325 1.358 1.287 2.613 2.885 3.765v0l1.633 1.177 0.366 0.239 1.641 1.182c0.719 0.518 1.442 0.876 2.171 1.075 0.725 0.204 1.46 0.229 2.207 0.075 0.743-0.149 1.476-0.493 2.198-1.032 0.721-0.548 1.427-1.302 2.118-2.262v0c0.808-1.121 1.41-2.268 1.807-3.441 0.401-1.178 0.654-2.372 0.76-3.583v0l2.279 2.045c-0.07 1.115-0.323 2.281-0.76 3.498-0.442 1.213-1.11 2.439-2.002 3.678zM47.478 62.183l-8.81 12.229-2.149-1.547 8.811-12.23z" fill="#010c80" data-fill-palette-color="primary"></path><path d="M76.437 48.181l-2.681 2.235-3.182-4.047-0.448-0.337-4.325-5.185-0.779-0.965c-1.105-1.325-2.257-2.025-3.457-2.101-1.204-0.071-2.535 0.5-3.992 1.716v0c-1.168 0.974-2.099 2.035-2.794 3.182-0.69 1.144-1.229 2.252-1.618 3.325v0l-1.674-2.503c0.215-0.61 0.508-1.285 0.88-2.025 0.376-0.736 0.87-1.501 1.482-2.295 0.612-0.794 1.367-1.566 2.265-2.316v0c1.168-0.974 2.279-1.659 3.333-2.057 1.054-0.397 2.058-0.541 3.011-0.431 0.947 0.114 1.853 0.452 2.717 1.013 0.864 0.562 1.686 1.31 2.465 2.244v0zM68.444 55.441v0c-1.614 1.346-3.179 1.989-4.695 1.927-1.519-0.067-2.887-0.829-4.101-2.286v0l-0.401-0.48c-1.253-1.503-1.725-3.012-1.413-4.528 0.311-1.516 1.358-3.263 3.142-5.243v0l4.546-5.03 1.797 1.845-4.375 4.863c-1.101 1.219-1.74 2.264-1.917 3.135-0.173 0.876 0.087 1.73 0.782 2.563v0l0.222 0.267c0.716 0.858 1.526 1.293 2.43 1.304 0.909 0.017 1.892-0.416 2.948-1.296v0c0.934-0.779 1.603-1.608 2.006-2.487 0.394-0.88 0.57-1.762 0.529-2.648-0.046-0.891-0.273-1.731-0.681-2.519v0l1.95 1.486-0.518 0.432c0.435 0.842 0.696 1.748 0.782 2.718 0.077 0.969-0.112 1.961-0.565 2.976-0.458 1.01-1.28 2.01-2.468 3.001z" fill="#010c80" data-fill-palette-color="primary"></path><path d="M91.159 39.629l-3.075 1.671-13.746-25.292 3.076-1.672z" fill="#010c80" data-fill-palette-color="primary"></path><path d="M111.461 32.72v0c-1.57 0.472-2.905 0.613-4.004 0.426-1.097-0.181-2.004-0.685-2.721-1.512-0.72-0.833-1.293-1.962-1.721-3.387v0l-3.85-12.821 3.333-1.001 3.731 12.422c0.401 1.336 1 2.226 1.795 2.671 0.804 0.449 1.925 0.457 3.363 0.025v0c0.823-0.247 1.584-0.576 2.282-0.985 0.707-0.405 1.342-0.876 1.905-1.411v0l0.557 2.99c-0.553 0.525-1.237 1.017-2.052 1.476-0.815 0.459-1.688 0.828-2.618 1.107zM110.922 13.552l-14.625 4.392-0.813-2.706 14.939-4.487zM102.156 13.596l-3.229 0.97-1.73-5.692 3.259-1.456z" fill="#010c80" data-fill-palette-color="primary"></path><path d="M145.813 27.794l-3.512 0.23-0.864-13.16c-0.075-1.141-0.294-2.114-0.659-2.918-0.364-0.804-0.914-1.411-1.649-1.819-0.729-0.409-1.701-0.574-2.915-0.495v0c-1.115 0.073-2.061 0.347-2.838 0.822-0.784 0.469-1.403 1.079-1.857 1.832-0.448 0.745-0.744 1.579-0.889 2.503v0l-0.945-2.443 0.91-0.059c0.155-0.964 0.497-1.861 1.026-2.691 0.522-0.823 1.256-1.5 2.202-2.033 0.945-0.539 2.12-0.855 3.525-0.947v0c1.676-0.11 3.052 0.121 4.13 0.693 1.071 0.566 1.886 1.43 2.445 2.592 0.553 1.163 0.887 2.612 1.001 4.347v0zM131.654 28.723l-3.513 0.231-1.885-28.725 3.493-0.229 0.452 6.897 0.29 6.072 0.147 0.279z" fill="#010c80" data-fill-palette-color="primary"></path><path d="M167.846 31.842v0c-3.361-0.688-5.691-2.146-6.99-4.376-1.292-2.228-1.582-5.081-0.87-8.559v0l1.32-6.45c0.712-3.478 2.095-5.985 4.15-7.521 2.062-1.535 4.767-1.96 8.116-1.275v0c1.075 0.22 2.036 0.518 2.883 0.894 0.846 0.382 1.587 0.8 2.224 1.254 0.629 0.453 1.152 0.9 1.567 1.343v0l-0.379 3.334c-0.714-0.767-1.588-1.489-2.623-2.167-1.035-0.677-2.314-1.172-3.836-1.483v0c-2.286-0.468-4.148-0.14-5.586 0.983-1.443 1.115-2.419 2.919-2.929 5.412v0l-1.286 6.286c-0.508 2.48-0.312 4.528 0.585 6.142 0.899 1.608 2.518 2.651 4.856 3.129v0c1.509 0.309 2.885 0.361 4.127 0.156 1.249-0.203 2.363-0.535 3.342-0.996v0l-0.989 3.3c-0.548 0.239-1.212 0.45-1.992 0.634-0.772 0.179-1.635 0.276-2.59 0.29-0.959 0.006-1.993-0.104-3.1-0.33z" fill="#010c80" data-fill-palette-color="primary"></path><path d="M202.516 45.249l-3.157-1.556 5.832-11.829c0.506-1.026 0.802-1.978 0.889-2.856 0.087-0.879-0.086-1.679-0.519-2.401-0.427-0.719-1.186-1.347-2.277-1.886v0c-1.002-0.494-1.958-0.73-2.869-0.706-0.913 0.014-1.755 0.233-2.524 0.657-0.76 0.421-1.434 0.995-2.021 1.723v0l0.402-2.588 0.819 0.404c0.617-0.757 1.361-1.363 2.233-1.818 0.864-0.451 1.838-0.671 2.924-0.659 1.088 0.006 2.263 0.32 3.526 0.943v0c1.506 0.743 2.583 1.631 3.23 2.665 0.644 1.025 0.918 2.181 0.822 3.467-0.102 1.284-0.538 2.705-1.307 4.265v0zM189.789 38.974l-3.157-1.556 12.73-25.819 3.139 1.548-3.056 6.199-2.786 5.404-0.012 0.314z" fill="#010c80" data-fill-palette-color="primary"></path><path d="M219.011 59.234v0c-2.415-2.139-3.712-4.343-3.892-6.613-0.179-2.26 0.706-4.492 2.656-6.694v0l2.505-2.828c1.981-2.237 4.075-3.455 6.283-3.655 2.208-0.199 4.405 0.67 6.593 2.607v0c1.475 1.306 2.466 2.67 2.974 4.091 0.498 1.422 0.55 2.858 0.156 4.31-0.39 1.447-1.205 2.871-2.446 4.272v0l-0.519 0.586c-0.307 0.346-0.628 0.68-0.965 1-0.332 0.325-0.669 0.635-1.011 0.932v0l-2.42-2.143c0.48-0.502 0.928-0.984 1.345-1.444 0.417-0.461 0.799-0.887 1.145-1.278v0c0.855-0.965 1.424-1.917 1.709-2.857 0.28-0.944 0.269-1.864-0.034-2.759-0.298-0.89-0.909-1.746-1.834-2.565v0c-1.366-1.21-2.741-1.721-4.125-1.534-1.384 0.187-2.729 1.018-4.036 2.493v0l-1.334 1.507-0.275 0.339-1.341 1.515c-0.587 0.663-1.016 1.347-1.287 2.052-0.276 0.7-0.375 1.43-0.296 2.188 0.074 0.754 0.343 1.518 0.806 2.29 0.473 0.772 1.152 1.55 2.038 2.335v0c1.034 0.916 2.115 1.63 3.242 2.143 1.132 0.517 2.295 0.889 3.489 1.116v0l-2.264 2.062c-1.102-0.181-2.237-0.55-3.404-1.107-1.163-0.562-2.316-1.349-3.458-2.361zM230.788 56.749l-11.283-9.993 1.755-1.982 11.283 9.993z" fill="#010c80" data-fill-palette-color="primary"></path><path d="M237.17 80.81v0c-1.72-2.508-2.324-4.839-1.813-6.992 0.52-2.152 2.023-4.081 4.509-5.786v0l2.723-1.867c2.497-1.712 4.837-2.415 7.019-2.108 2.192 0.309 4.143 1.712 5.856 4.208v0c0.508 0.741 0.904 1.464 1.186 2.169 0.273 0.702 0.467 1.371 0.582 2.005 0.109 0.639 0.158 1.206 0.146 1.704v0l-2.345 1.981c0.04-0.853-0.055-1.77-0.286-2.75-0.227-0.974-0.696-1.979-1.407-3.015v0c-1.148-1.674-2.465-2.602-3.953-2.784-1.488-0.182-3.115 0.332-4.881 1.543v0l-2.576 1.767c-1.734 1.189-2.786 2.512-3.158 3.969-0.371 1.457 0.017 3.023 1.165 4.696v0c0.737 1.074 1.522 1.898 2.356 2.472 0.838 0.579 1.682 1.027 2.532 1.342v0l-2.753 1.491c-0.717-0.286-1.518-0.747-2.403-1.382-0.889-0.641-1.722-1.529-2.499-2.663z" fill="#010c80" data-fill-palette-color="primary"></path><path d="M252.51 113.389l-1.482-3.945 6.31-11.319-0.788-2.098 2.563-0.962 0.787 2.098 10.854 4.504 1.467 3.908-12.965-5.417 0.799-0.3zM247.417 99.827l-1.23-3.277 26.949-10.119 1.23 3.277z" fill="#010c80" data-fill-palette-color="primary"></path><path d="M13.348 143.117c0-1.822 1.477-3.299 3.299-3.299 1.822 0 3.299 1.477 3.299 3.299 0 1.822-1.477 3.299-3.299 3.299-1.822 0-3.299-1.477-3.299-3.299z" fill="#010c80" data-fill-palette-color="primary"></path><path d="M263.237 143.117c0-1.822 1.477-3.299 3.299-3.299 1.822 0 3.299 1.477 3.298 3.299 0 1.822-1.477 3.299-3.298 3.299-1.822 0-3.299-1.477-3.299-3.299z" fill="#010c80" data-fill-palette-color="primary"></path></g><g id="text-1"><path d="M39.892 176.376l-27.125 9.637-1.252-3.523 27.126-9.636zM45.714 192.766l-27.125 9.636-1.251-3.523 27.125-9.636zM24.735 180.067l2.971-1.056 5.603 15.773-2.971 1.055z" fill="#010c80" data-fill-palette-color="primary"></path><path d="M33.222 226.266v0c-1.966-2.707-2.784-5.229-2.456-7.567 0.323-2.334 1.717-4.397 4.183-6.188v0l3.177-2.307c2.503-1.818 4.896-2.579 7.177-2.284 2.278 0.29 4.308 1.663 6.092 4.118v0c1.2 1.653 1.895 3.256 2.084 4.81 0.19 1.545-0.077 3.01-0.803 4.395-0.725 1.376-1.87 2.633-3.438 3.771v0l-0.658 0.478c-0.385 0.28-0.783 0.548-1.193 0.805-0.414 0.251-0.825 0.489-1.234 0.713v0l-1.97-2.712c0.599-0.402 1.162-0.791 1.69-1.166 0.523-0.371 1.003-0.716 1.442-1.035v0c1.08-0.785 1.871-1.62 2.371-2.507 0.496-0.892 0.691-1.821 0.584-2.789-0.105-0.977-0.533-1.982-1.282-3.015v0c-1.111-1.53-2.388-2.355-3.832-2.475-1.438-0.124-2.983 0.414-4.636 1.615v0l-1.701 1.235-0.349 0.279-1.693 1.229c-0.743 0.54-1.332 1.135-1.767 1.786-0.434 0.651-0.699 1.366-0.795 2.146-0.091 0.785 0.013 1.621 0.313 2.506 0.3 0.885 0.811 1.825 1.533 2.82v0c0.839 1.155 1.772 2.12 2.8 2.893 1.031 0.779 2.123 1.416 3.275 1.911v0l-2.749 1.58c-1.072-0.43-2.134-1.06-3.186-1.89-1.057-0.825-2.05-1.877-2.979-3.155zM45.704 226.392l-9.189-12.653 2.222-1.614 9.19 12.653z" fill="#010c80" data-fill-palette-color="primary"></path><path d="M63.299 255.135l-2.795-2.315 3.525-4.007 0.253-0.524 4.472-5.399 0.839-0.967c1.138-1.375 1.63-2.684 1.476-3.927-0.154-1.234-0.989-2.48-2.507-3.737v0c-1.212-1.004-2.468-1.752-3.767-2.244-1.3-0.493-2.534-0.832-3.702-1.019v0l2.246-2.183c0.657 0.098 1.396 0.268 2.217 0.51 0.826 0.246 1.7 0.606 2.623 1.078 0.922 0.472 1.852 1.096 2.788 1.872v0c1.217 1.008 2.128 2.011 2.734 3.01 0.606 0.999 0.941 1.994 1.006 2.983 0.065 0.989-0.105 1.977-0.51 2.964-0.409 0.992-1.014 1.971-1.816 2.938v0zM54.373 248.361v0c-1.68-1.391-2.631-2.866-2.852-4.422-0.217-1.562 0.3-3.099 1.552-4.611v0l0.418-0.504c1.294-1.563 2.744-2.328 4.347-2.296 1.604 0.032 3.582 0.769 5.934 2.21v0l5.993 3.676-1.542 2.173-5.782-3.527c-1.45-0.892-2.638-1.344-3.564-1.355-0.922-0.017-1.743 0.41-2.465 1.281v0l-0.227 0.275c-0.738 0.891-1.028 1.801-0.871 2.73 0.158 0.929 0.786 1.849 1.887 2.759v0c0.967 0.801 1.939 1.323 2.914 1.564 0.971 0.237 1.904 0.251 2.8 0.04 0.896-0.211 1.709-0.602 2.439-1.173v0l-1.153 2.264-0.535-0.443c-0.779 0.608-1.653 1.047-2.623 1.317-0.975 0.265-2.02 0.263-3.135-0.008-1.12-0.275-2.298-0.925-3.535-1.95z" fill="#010c80" data-fill-palette-color="primary"></path><path d="M81.126 265.722l-3.19-1.73 14.225-26.239 3.19 1.73z" fill="#010c80" data-fill-palette-color="primary"></path><path d="M104.954 275.011v0c-1.62-0.489-2.854-1.126-3.701-1.913-0.847-0.787-1.342-1.744-1.485-2.872-0.15-1.129-0.002-2.431 0.442-3.906v0l4.008-13.291 3.455 1.042-3.881 12.874c-0.416 1.38-0.407 2.494 0.027 3.343 0.436 0.843 1.401 1.489 2.896 1.94v0c0.848 0.256 1.692 0.41 2.532 0.463 0.836 0.045 1.65 0 2.443-0.134v0l-1.224 2.894c-0.776 0.146-1.647 0.184-2.613 0.113-0.971-0.079-1.937-0.263-2.899-0.553zM115.458 258.137l-15.162-4.571 0.845-2.801 15.484 4.669zM107.854 253.162l-3.342-1.007 1.752-5.914 3.66 0.606z" fill="#010c80" data-fill-palette-color="primary"></path><path d="M144.499 280l-3.64-0.248 0.929-13.642c0.08-1.181-0.012-2.211-0.277-3.09-0.265-0.873-0.744-1.571-1.437-2.096-0.694-0.518-1.67-0.819-2.93-0.905v0c-1.154-0.079-2.165 0.071-3.033 0.449-0.867 0.372-1.583 0.913-2.148 1.623-0.571 0.703-0.995 1.519-1.27 2.448v0l-0.625-2.637 0.94 0.064c0.292-0.974 0.765-1.85 1.421-2.626 0.655-0.77 1.504-1.365 2.547-1.785 1.049-0.419 2.299-0.579 3.75-0.48v0c1.735 0.118 3.117 0.544 4.147 1.276 1.024 0.732 1.741 1.732 2.151 2.999 0.41 1.274 0.554 2.807 0.432 4.602v0zM129.828 279.001l-3.641-0.248 2.028-29.778 3.621 0.246-0.487 7.153-0.547 6.284 0.119 0.296z" fill="#010c80" data-fill-palette-color="primary"></path><path d="M172.208 276.556v0c-3.486 0.705-6.302 0.256-8.446-1.346-2.139-1.604-3.573-4.211-4.304-7.82v0l-1.352-6.687c-0.729-3.603-0.422-6.555 0.919-8.856 1.342-2.302 3.749-3.804 7.223-4.507v0c1.121-0.227 2.162-0.33 3.124-0.308 0.961 0.015 1.833 0.111 2.618 0.29 0.791 0.177 1.472 0.393 2.044 0.649v0l0.999 3.339c-0.994-0.446-2.124-0.781-3.39-1.004-1.267-0.229-2.688-0.185-4.262 0.134v0c-2.365 0.478-4.011 1.543-4.939 3.194-0.921 1.65-1.119 3.771-0.594 6.363v0l1.317 6.511c0.52 2.572 1.537 4.447 3.05 5.625 1.505 1.173 3.473 1.513 5.902 1.022v0c1.562-0.316 2.895-0.825 4.001-1.528 1.107-0.696 2.034-1.464 2.782-2.302v0l0.404 3.55c-0.435 0.452-0.984 0.921-1.648 1.406-0.669 0.493-1.456 0.935-2.361 1.327-0.911 0.4-1.939 0.716-3.087 0.948z" fill="#010c80" data-fill-palette-color="primary"></path><path d="M212.15 260.318l-3.277 1.606-6.017-12.28c-0.521-1.063-1.115-1.909-1.784-2.538-0.666-0.623-1.43-0.989-2.293-1.096-0.86-0.102-1.856 0.125-2.99 0.681v0c-1.039 0.509-1.839 1.144-2.401 1.905-0.565 0.755-0.915 1.582-1.049 2.479-0.143 0.895-0.102 1.813 0.124 2.755v0l-1.86-1.97 0.846-0.415c-0.234-0.989-0.262-1.984-0.082-2.985 0.182-0.995 0.62-1.934 1.313-2.819 0.699-0.887 1.702-1.651 3.008-2.29v0c1.561-0.765 2.971-1.088 4.229-0.968 1.253 0.122 2.373 0.63 3.363 1.521 0.992 0.898 1.884 2.154 2.674 3.769v0zM198.944 266.788l-3.277 1.605-13.132-26.803 3.259-1.597 3.155 6.438 2.667 5.716 0.252 0.197z" fill="#010c80" data-fill-palette-color="primary"></path><path d="M233.804 244.019v0c-2.509 2.212-4.943 3.265-7.302 3.158-2.354-0.101-4.539-1.295-6.554-3.581v0l-2.597-2.946c-2.046-2.321-3.029-4.631-2.95-6.93 0.074-2.295 1.25-4.446 3.526-6.453v0c1.532-1.351 3.063-2.193 4.593-2.528 1.52-0.335 3.004-0.207 4.45 0.386 1.438 0.592 2.798 1.614 4.079 3.067v0l0.538 0.61c0.315 0.357 0.619 0.728 0.913 1.112 0.289 0.388 0.565 0.776 0.826 1.162v0l-2.514 2.216c-0.457-0.558-0.897-1.082-1.32-1.573-0.419-0.485-0.808-0.931-1.166-1.338v0c-0.883-1.002-1.789-1.71-2.719-2.124-0.934-0.41-1.878-0.516-2.832-0.319-0.963 0.197-1.923 0.717-2.881 1.561v0c-1.418 1.25-2.119 2.599-2.102 4.048 0.012 1.443 0.694 2.931 2.044 4.463v0l1.39 1.577 0.31 0.322 1.383 1.569c0.608 0.689 1.256 1.22 1.945 1.591 0.689 0.371 1.426 0.568 2.211 0.589 0.79 0.017 1.612-0.165 2.465-0.547 0.853-0.382 1.741-0.979 2.663-1.792v0c1.071-0.944 1.943-1.964 2.617-3.06 0.678-1.1 1.209-2.247 1.594-3.441v0l1.832 2.589c-0.327 1.108-0.854 2.225-1.581 3.35-0.722 1.13-1.676 2.218-2.861 3.262zM232.753 231.581l-11.73 10.34-1.817-2.06 11.731-10.341z" fill="#010c80" data-fill-palette-color="primary"></path><path d="M255.612 218.417v0c-1.791 2.595-3.826 4.042-6.105 4.341-2.279 0.299-4.702-0.438-7.27-2.21v0l-2.815-1.944c-2.584-1.784-4.134-3.793-4.648-6.027-0.509-2.231 0.129-4.638 1.912-7.222v0c0.529-0.767 1.083-1.417 1.66-1.951 0.573-0.528 1.147-0.963 1.721-1.306 0.574-0.343 1.104-0.604 1.589-0.784v0l2.799 1.547c-0.848 0.274-1.701 0.702-2.559 1.282-0.862 0.586-1.665 1.417-2.408 2.495v0c-1.194 1.73-1.603 3.347-1.228 4.851 0.372 1.51 1.474 2.897 3.308 4.163v0l2.668 1.842c1.79 1.235 3.459 1.761 5.009 1.577 1.55-0.175 2.923-1.127 4.116-2.858v0c0.77-1.115 1.279-2.185 1.529-3.21 0.246-1.019 0.363-1.998 0.353-2.937v0l2.461 2.108c-0.006 0.799-0.153 1.746-0.442 2.839-0.289 1.094-0.839 2.228-1.65 3.404z" fill="#010c80" data-fill-palette-color="primary"></path><path d="M272.721 180.505l-1.552 4.088-12.673 4.49-0.824 2.169-2.651-1.007 0.824-2.169-5.355-10.954 1.535-4.042 6.374 13.102-0.825-0.313zM267.388 194.549l-1.289 3.393-27.903-10.597 1.289-3.393z" fill="#010c80" data-fill-palette-color="primary"></path></g></svg></g></svg></g></svg></g></svg></g><defs></defs></svg><rect width="280" height="280" fill="none" stroke="none" visibility="hidden"></rect></g></svg></g></svg>